<svg width="190" height="190" viewBox="0 0 190 190" fill="none" xmlns="http://www.w3.org/2000/svg">
<mask id="mask0_1_166" style="mask-type:luminance" maskUnits="userSpaceOnUse" x="0" y="0" width="190" height="190">
<path d="M94.7374 -9.04393e-06C42.38 0.0346576 -0.0346454 42.508 2.12354e-05 94.864C0.0346879 147.22 42.5054 189.637 94.8627 189.601C147.22 189.567 189.635 147.095 189.601 94.7386C189.565 42.4 147.129 -0.00267571 94.8 -9.04393e-06C94.78 -9.04393e-06 94.756 -9.04393e-06 94.7374 -9.04393e-06Z" fill="white"/>
</mask>
<g mask="url(#mask0_1_166)">
<path d="M7.49247 161.018L5.77913 162.733L-0.795532 156.167L0.916468 154.453L7.49247 161.018Z" fill="#1EBEC4"/>
<path d="M5.77382 154.449L7.48849 156.162L0.923154 162.737L-0.792847 161.024L5.77382 154.449Z" fill="#1EBEC4"/>
<path d="M7.50298 178.39L5.79098 180.105L-0.783691 173.538L0.928309 171.824L7.50298 178.39Z" fill="#1EBEC4"/>
<path d="M5.78554 171.82L7.50021 173.533L0.933539 180.108L-0.781128 178.396L5.78554 171.82Z" fill="#1EBEC4"/>
<path d="M7.51456 194.549L5.80123 196.264L-0.773438 189.699L0.938562 187.983L7.51456 194.549Z" fill="#1EBEC4"/>
<path d="M5.79598 187.98L7.51064 189.692L0.945309 196.268L-0.770691 194.555L5.79598 187.98Z" fill="#1EBEC4"/>
<path d="M7.45878 109.555L5.74544 111.271L-0.829224 104.704L0.882776 102.99L7.45878 109.555Z" fill="#1EBEC4"/>
<path d="M5.73995 102.986L7.45461 104.699L0.887946 111.274L-0.826721 109.561L5.73995 102.986Z" fill="#1EBEC4"/>
<path d="M7.46916 126.927L5.75716 128.642L-0.817505 122.076L0.894495 120.362L7.46916 126.927Z" fill="#1EBEC4"/>
<path d="M5.75173 120.358L7.46639 122.071L0.899726 128.646L-0.814941 126.933L5.75173 120.358Z" fill="#1EBEC4"/>
<path d="M7.48087 143.086L5.76754 144.802L-0.807129 138.235L0.904871 136.52L7.48087 143.086Z" fill="#1EBEC4"/>
<path d="M5.7621 136.517L7.47677 138.23L0.910102 144.805L-0.804565 143.093L5.7621 136.517Z" fill="#1EBEC4"/>
<path d="M7.42351 58.0922L5.71151 59.8082L-0.863159 53.2415L0.848841 51.5269L7.42351 58.0922Z" fill="#1EBEC4"/>
<path d="M5.70607 51.5231L7.42074 53.2365L0.854071 59.8098L-0.860596 58.0978L5.70607 51.5231Z" fill="#1EBEC4"/>
<path d="M7.43528 75.464L5.72328 77.1786L-0.852722 70.6133L0.860611 68.8973L7.43528 75.464Z" fill="#1EBEC4"/>
<path d="M5.71779 68.8949L7.43246 70.6069L0.86579 77.1816L-0.848877 75.4696L5.71779 68.8949Z" fill="#1EBEC4"/>
<path d="M7.44566 91.6234L5.73366 93.3381L-0.841003 86.7728L0.870997 85.0568L7.44566 91.6234Z" fill="#1EBEC4"/>
<path d="M5.72823 85.0539L7.44289 86.7672L0.876227 93.3419L-0.83844 91.6285L5.72823 85.0539Z" fill="#1EBEC4"/>
<path d="M7.38969 6.6293L5.67769 8.34396L-0.896973 1.77863L0.815027 0.0639641L7.38969 6.6293Z" fill="#1EBEC4"/>
<path d="M5.67226 0.0603483L7.38692 1.77368L0.820258 8.34702L-0.894409 6.63502L5.67226 0.0603483Z" fill="#1EBEC4"/>
<path d="M7.4014 24.0004L5.6894 25.7164L-0.886597 19.1497L0.826737 17.435L7.4014 24.0004Z" fill="#1EBEC4"/>
<path d="M5.68258 17.4315L7.39858 19.1448L0.831915 25.7195L-0.882751 24.0061L5.68258 17.4315Z" fill="#1EBEC4"/>
<path d="M7.41179 40.1599L5.69979 41.8759L-0.874878 35.3093L0.837122 33.5946L7.41179 40.1599Z" fill="#1EBEC4"/>
<path d="M5.69435 33.5909L7.40902 35.3042L0.842353 41.8789L-0.872314 40.1656L5.69435 33.5909Z" fill="#1EBEC4"/>
<path d="M25.7621 161.006L24.0501 162.721L17.4741 156.156L19.1874 154.44L25.7621 161.006Z" fill="#1EBEC4"/>
<path d="M24.0432 154.437L25.7592 156.149L19.1926 162.725L17.4779 161.012L24.0432 154.437Z" fill="#1EBEC4"/>
<path d="M43.0329 160.995L41.3195 162.709L34.7449 156.144L36.4569 154.429L43.0329 160.995Z" fill="#1EBEC4"/>
<path d="M41.3142 154.426L43.0289 156.139L36.4636 162.714L34.7476 161L41.3142 154.426Z" fill="#1EBEC4"/>
<path d="M60.3025 160.983L58.5905 162.699L52.0158 156.132L53.7278 154.418L60.3025 160.983Z" fill="#1EBEC4"/>
<path d="M58.585 154.414L60.2997 156.127L53.733 162.702L52.0184 160.99L58.585 154.414Z" fill="#1EBEC4"/>
<path d="M77.5733 160.972L75.8613 162.687L69.2853 156.12L70.9986 154.406L77.5733 160.972Z" fill="#1EBEC4"/>
<path d="M75.8545 154.403L77.5705 156.115L71.0038 162.69L69.2891 160.978L75.8545 154.403Z" fill="#1EBEC4"/>
<path d="M94.8441 160.961L93.1308 162.675L86.5561 156.11L88.2694 154.394L94.8441 160.961Z" fill="#1EBEC4"/>
<path d="M93.1254 154.392L94.8401 156.104L88.2747 162.68L86.5601 160.966L93.1254 154.392Z" fill="#1EBEC4"/>
<path d="M25.7738 178.377L24.0605 180.092L17.4858 173.527L19.1992 171.812L25.7738 178.377Z" fill="#1EBEC4"/>
<path d="M24.055 171.808L25.7696 173.522L19.2043 180.096L17.4896 178.383L24.055 171.808Z" fill="#1EBEC4"/>
<path d="M43.0446 178.366L41.3313 180.082L34.7566 173.515L36.4686 171.8L43.0446 178.366Z" fill="#1EBEC4"/>
<path d="M41.3258 171.797L43.0405 173.51L36.4738 180.085L34.7592 178.373L41.3258 171.797Z" fill="#1EBEC4"/>
<path d="M60.3142 178.355L58.6022 180.07L52.0275 173.503L53.7395 171.789L60.3142 178.355Z" fill="#1EBEC4"/>
<path d="M58.5968 171.786L60.3114 173.498L53.7448 180.073L52.0301 178.361L58.5968 171.786Z" fill="#1EBEC4"/>
<path d="M77.585 178.344L75.8717 180.058L69.297 173.493L71.0103 171.777L77.585 178.344Z" fill="#1EBEC4"/>
<path d="M75.8662 171.774L77.5808 173.486L71.0155 180.062L69.3008 178.349L75.8662 171.774Z" fill="#1EBEC4"/>
<path d="M94.8558 178.332L93.1425 180.047L86.5678 173.481L88.2798 171.767L94.8558 178.332Z" fill="#1EBEC4"/>
<path d="M93.137 171.763L94.8516 173.476L88.2863 180.051L86.5703 178.337L93.137 171.763Z" fill="#1EBEC4"/>
<path d="M25.7842 194.538L24.0722 196.252L17.4962 189.686L19.2095 187.971L25.7842 194.538Z" fill="#1EBEC4"/>
<path d="M24.0654 187.968L25.7814 189.68L19.2147 196.255L17.5001 194.543L24.0654 187.968Z" fill="#1EBEC4"/>
<path d="M43.055 194.526L41.3416 196.24L34.767 189.675L36.479 187.959L43.055 194.526Z" fill="#1EBEC4"/>
<path d="M41.3363 187.957L43.051 189.669L36.4857 196.245L34.7697 194.531L41.3363 187.957Z" fill="#1EBEC4"/>
<path d="M60.3246 194.514L58.6126 196.229L52.038 189.663L53.75 187.949L60.3246 194.514Z" fill="#1EBEC4"/>
<path d="M58.6072 187.945L60.3219 189.658L53.7552 196.233L52.0405 194.52L58.6072 187.945Z" fill="#1EBEC4"/>
<path d="M77.5954 194.502L75.8834 196.218L69.3074 189.652L71.0207 187.937L77.5954 194.502Z" fill="#1EBEC4"/>
<path d="M75.8766 187.933L77.5926 189.647L71.0259 196.221L69.3113 194.509L75.8766 187.933Z" fill="#1EBEC4"/>
<path d="M94.8662 194.492L93.1529 196.207L86.5782 189.64L88.2916 187.925L94.8662 194.492Z" fill="#1EBEC4"/>
<path d="M93.1475 187.923L94.8622 189.635L88.2969 196.21L86.5822 194.498L93.1475 187.923Z" fill="#1EBEC4"/>
<path d="M25.7282 109.543L24.0149 111.258L17.4402 104.693L19.1535 102.978L25.7282 109.543Z" fill="#1EBEC4"/>
<path d="M24.0094 102.974L25.7241 104.688L19.1588 111.261L17.4441 109.549L24.0094 102.974Z" fill="#1EBEC4"/>
<path d="M42.999 109.532L41.2857 111.248L34.711 104.681L36.423 102.966L42.999 109.532Z" fill="#1EBEC4"/>
<path d="M41.2804 102.963L42.995 104.676L36.4297 111.251L34.7137 109.537L41.2804 102.963Z" fill="#1EBEC4"/>
<path d="M60.2686 109.521L58.5566 111.235L51.9819 104.67L53.6939 102.955L60.2686 109.521Z" fill="#1EBEC4"/>
<path d="M58.5512 102.952L60.2658 104.665L53.6992 111.238L51.9845 109.526L58.5512 102.952Z" fill="#1EBEC4"/>
<path d="M77.5394 109.509L75.8261 111.225L69.2514 104.658L70.9647 102.944L77.5394 109.509Z" fill="#1EBEC4"/>
<path d="M75.8206 102.94L77.5352 104.653L70.9699 111.227L69.2552 109.515L75.8206 102.94Z" fill="#1EBEC4"/>
<path d="M94.8102 109.498L93.0969 111.212L86.5222 104.647L88.2342 102.931L94.8102 109.498Z" fill="#1EBEC4"/>
<path d="M93.0916 102.929L94.8062 104.641L88.2409 111.215L86.5249 109.503L93.0916 102.929Z" fill="#1EBEC4"/>
<path d="M25.7399 126.914L24.0266 128.63L17.4519 122.064L19.1639 120.349L25.7399 126.914Z" fill="#1EBEC4"/>
<path d="M24.0211 120.345L25.7358 122.059L19.1705 128.632L17.4545 126.92L24.0211 120.345Z" fill="#1EBEC4"/>
<path d="M43.0094 126.903L41.2974 128.618L34.7228 122.053L36.4348 120.338L43.0094 126.903Z" fill="#1EBEC4"/>
<path d="M41.2921 120.334L43.0068 122.048L36.4401 128.622L34.7255 126.909L41.2921 120.334Z" fill="#1EBEC4"/>
<path d="M60.2803 126.892L58.5683 128.606L51.9923 122.041L53.7056 120.326L60.2803 126.892Z" fill="#1EBEC4"/>
<path d="M58.5615 120.323L60.2775 122.036L53.7109 128.611L51.9962 126.897L58.5615 120.323Z" fill="#1EBEC4"/>
<path d="M77.5511 126.881L75.8378 128.597L69.2631 122.03L70.9765 120.314L77.5511 126.881Z" fill="#1EBEC4"/>
<path d="M75.8323 120.312L77.547 122.024L70.9816 128.598L69.267 126.886L75.8323 120.312Z" fill="#1EBEC4"/>
<path d="M94.8206 126.869L93.1086 128.585L86.5339 122.018L88.2459 120.304L94.8206 126.869Z" fill="#1EBEC4"/>
<path d="M93.1033 120.3L94.818 122.013L88.2513 128.586L86.5366 126.874L93.1033 120.3Z" fill="#1EBEC4"/>
<path d="M25.7503 143.074L24.037 144.789L17.4623 138.223L19.1757 136.509L25.7503 143.074Z" fill="#1EBEC4"/>
<path d="M24.0315 136.505L25.7462 138.218L19.1809 144.793L17.4662 143.08L24.0315 136.505Z" fill="#1EBEC4"/>
<path d="M43.0212 143.062L41.3078 144.778L34.7332 138.212L36.4452 136.497L43.0212 143.062Z" fill="#1EBEC4"/>
<path d="M41.3025 136.493L43.0172 138.207L36.4518 144.781L34.7358 143.069L41.3025 136.493Z" fill="#1EBEC4"/>
<path d="M60.2908 143.052L58.5788 144.766L52.0041 138.2L53.7161 136.485L60.2908 143.052Z" fill="#1EBEC4"/>
<path d="M58.5733 136.483L60.2879 138.195L53.7213 144.77L52.0066 143.058L58.5733 136.483Z" fill="#1EBEC4"/>
<path d="M77.5616 143.04L75.8496 144.755L69.2736 138.188L70.9869 136.473L77.5616 143.04Z" fill="#1EBEC4"/>
<path d="M75.8427 136.471L77.5587 138.183L70.9921 144.758L69.2774 143.046L75.8427 136.471Z" fill="#1EBEC4"/>
<path d="M94.8324 143.028L93.119 144.743L86.5444 138.178L88.2564 136.462L94.8324 143.028Z" fill="#1EBEC4"/>
<path d="M93.1137 136.459L94.8284 138.171L88.2631 144.747L86.5471 143.034L93.1137 136.459Z" fill="#1EBEC4"/>
<path d="M25.6944 58.0805L23.981 59.7952L17.4064 53.2298L19.1184 51.5138L25.6944 58.0805Z" fill="#1EBEC4"/>
<path d="M23.9755 51.5109L25.6902 53.2243L19.1249 59.7989L17.4089 58.0856L23.9755 51.5109Z" fill="#1EBEC4"/>
<path d="M42.9639 58.0688L41.2519 59.7834L34.6772 53.2181L36.3892 51.5034L42.9639 58.0688Z" fill="#1EBEC4"/>
<path d="M41.2465 51.4998L42.9611 53.2132L36.3945 59.7865L34.6798 58.0745L41.2465 51.4998Z" fill="#1EBEC4"/>
<path d="M60.2347 58.0577L58.5227 59.7724L51.9467 53.2071L53.66 51.4911L60.2347 58.0577Z" fill="#1EBEC4"/>
<path d="M58.5159 51.4881L60.2319 53.2014L53.6652 59.7761L51.9506 58.0628L58.5159 51.4881Z" fill="#1EBEC4"/>
<path d="M77.5055 58.046L75.7922 59.7606L69.2175 53.1953L70.9309 51.4806L77.5055 58.046Z" fill="#1EBEC4"/>
<path d="M75.7867 51.477L77.5014 53.1903L70.936 59.7637L69.2214 58.0517L75.7867 51.477Z" fill="#1EBEC4"/>
<path d="M94.7752 58.0342L93.0632 59.7502L86.4885 53.1835L88.2005 51.4689L94.7752 58.0342Z" fill="#1EBEC4"/>
<path d="M93.0576 51.4653L94.7723 53.1786L88.2056 59.7533L86.491 58.04L93.0576 51.4653Z" fill="#1EBEC4"/>
<path d="M25.7061 75.4516L23.9928 77.1662L17.4181 70.6009L19.1301 68.8862L25.7061 75.4516Z" fill="#1EBEC4"/>
<path d="M23.9873 68.8826L25.702 70.5959L19.1367 77.1693L17.4207 75.4573L23.9873 68.8826Z" fill="#1EBEC4"/>
<path d="M42.9755 75.4405L41.2635 77.1552L34.6888 70.5898L36.4008 68.8738L42.9755 75.4405Z" fill="#1EBEC4"/>
<path d="M41.2582 68.8709L42.9729 70.5842L36.4062 77.1589L34.6915 75.4456L41.2582 68.8709Z" fill="#1EBEC4"/>
<path d="M60.2465 75.4288L58.5332 77.1434L51.9585 70.5781L53.6718 68.8634L60.2465 75.4288Z" fill="#1EBEC4"/>
<path d="M58.5277 68.8598L60.2423 70.5732L53.677 77.1465L51.9623 75.4345L58.5277 68.8598Z" fill="#1EBEC4"/>
<path d="M77.5172 75.417L75.8039 77.133L69.2292 70.5664L70.9412 68.8517L77.5172 75.417Z" fill="#1EBEC4"/>
<path d="M75.7985 68.8481L77.5131 70.5614L70.9478 77.1361L69.2318 75.4228L75.7985 68.8481Z" fill="#1EBEC4"/>
<path d="M94.7867 75.406L93.0747 77.1207L86.5001 70.5553L88.2121 68.8407L94.7867 75.406Z" fill="#1EBEC4"/>
<path d="M93.0695 68.8371L94.7841 70.5504L88.2175 77.1237L86.5028 75.4117L93.0695 68.8371Z" fill="#1EBEC4"/>
<path d="M25.7165 91.611L24.0031 93.3257L17.4285 86.7604L19.1418 85.0457L25.7165 91.611Z" fill="#1EBEC4"/>
<path d="M23.9978 85.0421L25.7125 86.7554L19.1472 93.3287L17.4325 91.6167L23.9978 85.0421Z" fill="#1EBEC4"/>
<path d="M42.9861 91.5994L41.2741 93.3154L34.6994 86.7487L36.4114 85.0341L42.9861 91.5994Z" fill="#1EBEC4"/>
<path d="M41.2686 85.0304L42.9833 86.7437L36.4166 93.3184L34.702 91.605L41.2686 85.0304Z" fill="#1EBEC4"/>
<path d="M60.2569 91.5884L58.5449 93.303L51.9689 86.7377L53.6822 85.023L60.2569 91.5884Z" fill="#1EBEC4"/>
<path d="M58.538 85.0193L60.254 86.7326L53.6874 93.306L51.9727 91.594L58.538 85.0193Z" fill="#1EBEC4"/>
<path d="M77.5277 91.5766L75.8144 93.2926L69.2397 86.7259L70.953 85.0113L77.5277 91.5766Z" fill="#1EBEC4"/>
<path d="M75.8089 85.0076L77.5235 86.7209L70.9582 93.2956L69.2435 91.5823L75.8089 85.0076Z" fill="#1EBEC4"/>
<path d="M94.7984 91.5656L93.0851 93.2802L86.5104 86.7149L88.2224 85.0002L94.7984 91.5656Z" fill="#1EBEC4"/>
<path d="M93.0798 84.9965L94.7945 86.7098L88.2278 93.2832L86.5131 91.5712L93.0798 84.9965Z" fill="#1EBEC4"/>
<path d="M25.6604 6.61689L23.9471 8.33289L17.3724 1.76622L19.0844 0.0515536L25.6604 6.61689Z" fill="#1EBEC4"/>
<path d="M23.9418 0.0479371L25.6565 1.76127L19.0911 8.33594L17.3751 6.6226L23.9418 0.0479371Z" fill="#1EBEC4"/>
<path d="M42.9301 6.60586L41.2181 8.32053L34.6434 1.75519L36.3554 0.0405266L42.9301 6.60586Z" fill="#1EBEC4"/>
<path d="M41.2127 0.0369108L42.9273 1.75024L36.3607 8.32358L34.646 6.61158L41.2127 0.0369108Z" fill="#1EBEC4"/>
<path d="M60.2008 6.59424L58.4888 8.31024L51.9128 1.74358L53.6262 0.0289095L60.2008 6.59424Z" fill="#1EBEC4"/>
<path d="M58.4821 0.025171L60.1981 1.7385L53.6314 8.31317L51.9167 6.59984L58.4821 0.025171Z" fill="#1EBEC4"/>
<path d="M77.4717 6.58318L75.7583 8.29785L69.1837 1.73252L70.8957 0.017852L77.4717 6.58318Z" fill="#1EBEC4"/>
<path d="M75.753 0.0140836L77.4677 1.72742L70.9023 8.30075L69.1863 6.58875L75.753 0.0140836Z" fill="#1EBEC4"/>
<path d="M94.7413 6.57141L93.0293 8.28741L86.4547 1.72075L88.1667 0.00608239L94.7413 6.57141Z" fill="#1EBEC4"/>
<path d="M93.0238 0.0023744L94.7385 1.71571L88.1718 8.29037L86.4572 6.57704L93.0238 0.0023744Z" fill="#1EBEC4"/>
<path d="M25.6709 23.9888L23.9589 25.7035L17.3842 19.1381L19.0962 17.4235L25.6709 23.9888Z" fill="#1EBEC4"/>
<path d="M23.9534 17.4197L25.6681 19.133L19.1014 25.7064L17.3867 23.9944L23.9534 17.4197Z" fill="#1EBEC4"/>
<path d="M42.9418 23.977L41.2298 25.693L34.6538 19.1263L36.3671 17.4117L42.9418 23.977Z" fill="#1EBEC4"/>
<path d="M41.223 17.408L42.939 19.1213L36.3723 25.696L34.6577 23.9827L41.223 17.408Z" fill="#1EBEC4"/>
<path d="M60.2126 23.966L58.4993 25.6806L51.9246 19.1153L53.638 17.4006L60.2126 23.966Z" fill="#1EBEC4"/>
<path d="M58.4938 17.3969L60.2085 19.1102L53.6431 25.6836L51.9285 23.9716L58.4938 17.3969Z" fill="#1EBEC4"/>
<path d="M77.4821 23.9542L75.7701 25.6702L69.1954 19.1036L70.9074 17.3889L77.4821 23.9542Z" fill="#1EBEC4"/>
<path d="M75.7646 17.3852L77.4793 19.0985L70.9126 25.6732L69.1979 23.9599L75.7646 17.3852Z" fill="#1EBEC4"/>
<path d="M94.753 23.9432L93.041 25.6578L86.465 19.0925L88.1784 17.3778L94.753 23.9432Z" fill="#1EBEC4"/>
<path d="M93.0355 17.3741L94.7502 19.0874L88.1835 25.6608L86.4689 23.9488L93.0355 17.3741Z" fill="#1EBEC4"/>
<path d="M25.6826 40.1482L23.9693 41.8629L17.3946 35.2976L19.1066 33.5829L25.6826 40.1482Z" fill="#1EBEC4"/>
<path d="M23.9639 33.5791L25.6786 35.2925L19.1133 41.8658L17.3973 40.1538L23.9639 33.5791Z" fill="#1EBEC4"/>
<path d="M42.9522 40.1365L41.2402 41.8525L34.6655 35.2858L36.3775 33.5711L42.9522 40.1365Z" fill="#1EBEC4"/>
<path d="M41.2348 33.5674L42.9494 35.2808L36.3828 41.8554L34.6681 40.1421L41.2348 33.5674Z" fill="#1EBEC4"/>
<path d="M60.223 40.1254L58.511 41.8401L51.935 35.2748L53.6483 33.5601L60.223 40.1254Z" fill="#1EBEC4"/>
<path d="M58.5042 33.5564L60.2202 35.2697L53.6535 41.843L51.9388 40.131L58.5042 33.5564Z" fill="#1EBEC4"/>
<path d="M77.4938 40.1137L75.7805 41.8297L69.2058 35.263L70.9178 33.5483L77.4938 40.1137Z" fill="#1EBEC4"/>
<path d="M75.7752 33.5446L77.4898 35.258L70.9245 41.8326L69.2085 40.1193L75.7752 33.5446Z" fill="#1EBEC4"/>
<path d="M94.7634 40.1027L93.0514 41.8173L86.4767 35.252L88.1887 33.536L94.7634 40.1027Z" fill="#1EBEC4"/>
<path d="M93.0459 33.5336L94.7606 35.2456L88.1939 41.8203L86.4792 40.1083L93.0459 33.5336Z" fill="#1EBEC4"/>
<path d="M110.405 160.95L108.693 162.665L102.117 156.1L103.831 154.384L110.405 160.95Z" fill="#1EBEC4"/>
<path d="M108.687 154.381L110.401 156.093L103.836 162.669L102.121 160.956L108.687 154.381Z" fill="#1EBEC4"/>
<path d="M127.676 160.939L125.963 162.653L119.388 156.088L121.1 154.373L127.676 160.939Z" fill="#1EBEC4"/>
<path d="M125.957 154.37L127.672 156.083L121.107 162.658L119.391 160.944L125.957 154.37Z" fill="#1EBEC4"/>
<path d="M144.946 160.927L143.234 162.643L136.659 156.076L138.371 154.362L144.946 160.927Z" fill="#1EBEC4"/>
<path d="M143.228 154.358L144.943 156.071L138.376 162.646L136.662 160.934L143.228 154.358Z" fill="#1EBEC4"/>
<path d="M162.216 160.916L160.504 162.631L153.928 156.064L155.642 154.35L162.216 160.916Z" fill="#1EBEC4"/>
<path d="M160.498 154.347L162.214 156.059L155.647 162.634L153.932 160.922L160.498 154.347Z" fill="#1EBEC4"/>
<path d="M179.487 160.905L177.774 162.619L171.199 156.054L172.911 154.338L179.487 160.905Z" fill="#1EBEC4"/>
<path d="M177.769 154.336L179.483 156.048L172.918 162.624L171.202 160.91L177.769 154.336Z" fill="#1EBEC4"/>
<path d="M110.417 178.321L108.704 180.036L102.129 173.471L103.842 171.756L110.417 178.321Z" fill="#1EBEC4"/>
<path d="M108.698 171.752L110.413 173.466L103.847 180.04L102.133 178.327L108.698 171.752Z" fill="#1EBEC4"/>
<path d="M127.687 178.31L125.975 180.026L119.4 173.459L121.112 171.744L127.687 178.31Z" fill="#1EBEC4"/>
<path d="M125.969 171.741L127.684 173.454L121.117 180.029L119.403 178.317L125.969 171.741Z" fill="#1EBEC4"/>
<path d="M144.957 178.299L143.245 180.014L136.669 173.447L138.383 171.733L144.957 178.299Z" fill="#1EBEC4"/>
<path d="M143.239 171.73L144.955 173.442L138.388 180.017L136.673 178.305L143.239 171.73Z" fill="#1EBEC4"/>
<path d="M162.228 178.288L160.515 180.002L153.94 173.437L155.654 171.721L162.228 178.288Z" fill="#1EBEC4"/>
<path d="M160.509 171.718L162.224 173.43L155.659 180.007L153.944 178.293L160.509 171.718Z" fill="#1EBEC4"/>
<path d="M179.499 178.276L177.786 179.99L171.211 173.425L172.923 171.71L179.499 178.276Z" fill="#1EBEC4"/>
<path d="M177.78 171.707L179.495 173.42L172.928 179.995L171.214 178.281L177.78 171.707Z" fill="#1EBEC4"/>
<path d="M110.427 194.482L108.715 196.196L102.139 189.63L103.853 187.915L110.427 194.482Z" fill="#1EBEC4"/>
<path d="M108.709 187.912L110.425 189.624L103.858 196.199L102.143 194.487L108.709 187.912Z" fill="#1EBEC4"/>
<path d="M127.698 194.47L125.985 196.185L119.41 189.619L121.122 187.903L127.698 194.47Z" fill="#1EBEC4"/>
<path d="M125.98 187.901L127.694 189.613L121.129 196.189L119.413 194.475L125.98 187.901Z" fill="#1EBEC4"/>
<path d="M144.968 194.458L143.256 196.173L136.681 189.607L138.393 187.893L144.968 194.458Z" fill="#1EBEC4"/>
<path d="M143.25 187.889L144.965 189.602L138.398 196.177L136.684 194.464L143.25 187.889Z" fill="#1EBEC4"/>
<path d="M162.239 194.446L160.527 196.162L153.951 189.596L155.664 187.881L162.239 194.446Z" fill="#1EBEC4"/>
<path d="M160.52 187.877L162.236 189.591L155.669 196.165L153.955 194.453L160.52 187.877Z" fill="#1EBEC4"/>
<path d="M179.509 194.436L177.796 196.151L171.221 189.584L172.933 187.869L179.509 194.436Z" fill="#1EBEC4"/>
<path d="M177.791 187.867L179.505 189.579L172.94 196.154L171.224 194.442L177.791 187.867Z" fill="#1EBEC4"/>
<path d="M110.371 109.487L108.658 111.202L102.083 104.637L103.797 102.922L110.371 109.487Z" fill="#1EBEC4"/>
<path d="M108.653 102.918L110.367 104.632L103.802 111.205L102.087 109.493L108.653 102.918Z" fill="#1EBEC4"/>
<path d="M127.642 109.476L125.929 111.192L119.354 104.625L121.066 102.91L127.642 109.476Z" fill="#1EBEC4"/>
<path d="M125.924 102.907L127.638 104.62L121.072 111.195L119.357 109.481L125.924 102.907Z" fill="#1EBEC4"/>
<path d="M144.912 109.465L143.2 111.179L136.624 104.614L138.337 102.899L144.912 109.465Z" fill="#1EBEC4"/>
<path d="M143.194 102.896L144.909 104.609L138.342 111.182L136.628 109.47L143.194 102.896Z" fill="#1EBEC4"/>
<path d="M162.183 109.453L160.469 111.169L153.895 104.602L155.608 102.888L162.183 109.453Z" fill="#1EBEC4"/>
<path d="M160.464 102.884L162.179 104.597L155.613 111.172L153.899 109.459L160.464 102.884Z" fill="#1EBEC4"/>
<path d="M179.453 109.442L177.74 111.156L171.165 104.591L172.877 102.875L179.453 109.442Z" fill="#1EBEC4"/>
<path d="M177.735 102.873L179.449 104.585L172.884 111.159L171.168 109.447L177.735 102.873Z" fill="#1EBEC4"/>
<path d="M110.383 126.858L108.67 128.574L102.095 122.008L103.807 120.293L110.383 126.858Z" fill="#1EBEC4"/>
<path d="M108.665 120.289L110.379 122.003L103.814 128.576L102.098 126.864L108.665 120.289Z" fill="#1EBEC4"/>
<path d="M127.653 126.847L125.941 128.562L119.366 121.997L121.078 120.282L127.653 126.847Z" fill="#1EBEC4"/>
<path d="M125.935 120.278L127.65 121.992L121.083 128.566L119.369 126.853L125.935 120.278Z" fill="#1EBEC4"/>
<path d="M144.923 126.836L143.211 128.55L136.635 121.985L138.349 120.27L144.923 126.836Z" fill="#1EBEC4"/>
<path d="M143.205 120.267L144.921 121.98L138.354 128.555L136.639 126.841L143.205 120.267Z" fill="#1EBEC4"/>
<path d="M162.194 126.825L160.481 128.541L153.906 121.974L155.618 120.258L162.194 126.825Z" fill="#1EBEC4"/>
<path d="M160.476 120.256L162.19 121.968L155.625 128.542L153.909 126.83L160.476 120.256Z" fill="#1EBEC4"/>
<path d="M179.464 126.813L177.752 128.529L171.177 121.962L172.889 120.248L179.464 126.813Z" fill="#1EBEC4"/>
<path d="M177.746 120.244L179.461 121.957L172.894 128.531L171.18 126.819L177.746 120.244Z" fill="#1EBEC4"/>
<path d="M110.394 143.018L108.68 144.733L102.106 138.167L103.819 136.453L110.394 143.018Z" fill="#1EBEC4"/>
<path d="M108.675 136.449L110.39 138.162L103.824 144.737L102.11 143.024L108.675 136.449Z" fill="#1EBEC4"/>
<path d="M127.664 143.006L125.951 144.722L119.376 138.156L121.088 136.441L127.664 143.006Z" fill="#1EBEC4"/>
<path d="M125.946 136.437L127.66 138.151L121.094 144.725L119.379 143.013L125.946 136.437Z" fill="#1EBEC4"/>
<path d="M144.934 142.996L143.222 144.711L136.647 138.144L138.359 136.429L144.934 142.996Z" fill="#1EBEC4"/>
<path d="M143.217 136.427L144.931 138.139L138.365 144.714L136.65 143.002L143.217 136.427Z" fill="#1EBEC4"/>
<path d="M162.205 142.984L160.491 144.699L153.917 138.132L155.63 136.417L162.205 142.984Z" fill="#1EBEC4"/>
<path d="M160.486 136.415L162.201 138.127L155.635 144.702L153.921 142.99L160.486 136.415Z" fill="#1EBEC4"/>
<path d="M179.476 142.972L177.762 144.687L171.188 138.122L172.899 136.406L179.476 142.972Z" fill="#1EBEC4"/>
<path d="M177.757 136.403L179.472 138.115L172.906 144.691L171.19 142.978L177.757 136.403Z" fill="#1EBEC4"/>
<path d="M110.337 58.0245L108.624 59.7392L102.049 53.1739L103.761 51.4579L110.337 58.0245Z" fill="#1EBEC4"/>
<path d="M108.619 51.4549L110.334 53.1682L103.768 59.7429L102.052 58.0296L108.619 51.4549Z" fill="#1EBEC4"/>
<path d="M127.607 58.0128L125.895 59.7274L119.32 53.1621L121.032 51.4474L127.607 58.0128Z" fill="#1EBEC4"/>
<path d="M125.89 51.4438L127.604 53.1571L121.038 59.7305L119.323 58.0185L125.89 51.4438Z" fill="#1EBEC4"/>
<path d="M144.878 58.0017L143.166 59.7164L136.59 53.151L138.303 51.435L144.878 58.0017Z" fill="#1EBEC4"/>
<path d="M143.159 51.4321L144.875 53.1454L138.308 59.7201L136.594 58.0068L143.159 51.4321Z" fill="#1EBEC4"/>
<path d="M162.149 57.99L160.435 59.7047L153.861 53.1393L155.573 51.4247L162.149 57.99Z" fill="#1EBEC4"/>
<path d="M160.43 51.421L162.145 53.1344L155.579 59.7077L153.863 57.9957L160.43 51.421Z" fill="#1EBEC4"/>
<path d="M179.418 57.9782L177.706 59.6942L171.132 53.1275L172.844 51.4129L179.418 57.9782Z" fill="#1EBEC4"/>
<path d="M177.701 51.4093L179.416 53.1227L172.849 59.6973L171.134 57.984L177.701 51.4093Z" fill="#1EBEC4"/>
<path d="M110.348 75.3955L108.636 77.1115L102.061 70.5449L103.773 68.8302L110.348 75.3955Z" fill="#1EBEC4"/>
<path d="M108.631 68.8266L110.345 70.5399L103.779 77.1133L102.064 75.4013L108.631 68.8266Z" fill="#1EBEC4"/>
<path d="M127.619 75.3845L125.907 77.0992L119.331 70.5338L121.044 68.8178L127.619 75.3845Z" fill="#1EBEC4"/>
<path d="M125.901 68.8149L127.616 70.5282L121.049 77.1029L119.335 75.3896L125.901 68.8149Z" fill="#1EBEC4"/>
<path d="M144.89 75.3728L143.176 77.0875L136.602 70.5221L138.315 68.8075L144.89 75.3728Z" fill="#1EBEC4"/>
<path d="M143.171 68.8038L144.885 70.5172L138.32 77.0905L136.605 75.3785L143.171 68.8038Z" fill="#1EBEC4"/>
<path d="M162.16 75.361L160.447 77.077L153.872 70.5103L155.584 68.7957L162.16 75.361Z" fill="#1EBEC4"/>
<path d="M160.442 68.7921L162.157 70.5054L155.591 77.0801L153.875 75.3667L160.442 68.7921Z" fill="#1EBEC4"/>
<path d="M179.43 75.35L177.718 77.0646L171.143 70.4993L172.855 68.7846L179.43 75.35Z" fill="#1EBEC4"/>
<path d="M177.713 68.781L179.427 70.4944L172.861 77.0677L171.146 75.3557L177.713 68.781Z" fill="#1EBEC4"/>
<path d="M110.36 91.5552L108.646 93.2698L102.072 86.7045L103.784 84.9898L110.36 91.5552Z" fill="#1EBEC4"/>
<path d="M108.641 84.9861L110.356 86.6994L103.79 93.2728L102.074 91.5608L108.641 84.9861Z" fill="#1EBEC4"/>
<path d="M127.629 91.5434L125.917 93.2594L119.343 86.6927L121.055 84.9781L127.629 91.5434Z" fill="#1EBEC4"/>
<path d="M125.912 84.9744L127.626 86.6877L121.06 93.2624L119.345 91.5491L125.912 84.9744Z" fill="#1EBEC4"/>
<path d="M144.9 91.5324L143.188 93.247L136.612 86.6817L138.325 84.967L144.9 91.5324Z" fill="#1EBEC4"/>
<path d="M143.181 84.9633L144.897 86.6766L138.331 93.25L136.616 91.538L143.181 84.9633Z" fill="#1EBEC4"/>
<path d="M162.171 91.5206L160.457 93.2366L153.883 86.67L155.596 84.9553L162.171 91.5206Z" fill="#1EBEC4"/>
<path d="M160.452 84.9516L162.167 86.6649L155.602 93.2396L153.887 91.5262L160.452 84.9516Z" fill="#1EBEC4"/>
<path d="M179.44 91.5096L177.728 93.2242L171.154 86.6589L172.866 84.9442L179.44 91.5096Z" fill="#1EBEC4"/>
<path d="M177.723 84.9405L179.438 86.6538L172.871 93.2271L171.156 91.5151L177.723 84.9405Z" fill="#1EBEC4"/>
<path d="M110.304 6.56104L108.59 8.27704L102.016 1.71037L103.728 -0.00429358L110.304 6.56104Z" fill="#1EBEC4"/>
<path d="M108.585 -0.00803209L110.3 1.7053L103.733 8.27997L102.018 6.56664L108.585 -0.00803209Z" fill="#1EBEC4"/>
<path d="M127.573 6.54983L125.861 8.2645L119.285 1.69916L120.999 -0.0155037L127.573 6.54983Z" fill="#1EBEC4"/>
<path d="M125.856 -0.0191195L127.571 1.69421L121.004 8.26755L119.289 6.55555L125.856 -0.0191195Z" fill="#1EBEC4"/>
<path d="M144.844 6.53821L143.131 8.25421L136.556 1.68754L138.269 -0.0271207L144.844 6.53821Z" fill="#1EBEC4"/>
<path d="M143.125 -0.0308287L144.84 1.6825L138.275 8.25717L136.56 6.54384L143.125 -0.0308287Z" fill="#1EBEC4"/>
<path d="M162.115 6.52715L160.402 8.24182L153.827 1.67649L155.539 -0.0381783L162.115 6.52715Z" fill="#1EBEC4"/>
<path d="M160.396 -0.0419161L162.111 1.67142L155.546 8.24475L153.83 6.53275L160.396 -0.0419161Z" fill="#1EBEC4"/>
<path d="M179.384 6.51541L177.672 8.23141L171.098 1.66475L172.81 -0.0499174L179.384 6.51541Z" fill="#1EBEC4"/>
<path d="M177.667 -0.0536254L179.382 1.65971L172.815 8.23438L171.1 6.52104L177.667 -0.0536254Z" fill="#1EBEC4"/>
<path d="M110.314 23.9328L108.602 25.6474L102.028 19.0821L103.74 17.3674L110.314 23.9328Z" fill="#1EBEC4"/>
<path d="M108.597 17.3637L110.311 19.077L103.745 25.6504L102.03 23.9384L108.597 17.3637Z" fill="#1EBEC4"/>
<path d="M127.585 23.921L125.873 25.637L119.297 19.0704L121.01 17.3557L127.585 23.921Z" fill="#1EBEC4"/>
<path d="M125.866 17.352L127.582 19.0653L121.016 25.64L119.301 23.9267L125.866 17.352Z" fill="#1EBEC4"/>
<path d="M144.856 23.91L143.142 25.6246L136.568 19.0593L138.28 17.3446L144.856 23.91Z" fill="#1EBEC4"/>
<path d="M143.137 17.3409L144.852 19.0542L138.286 25.6276L136.57 23.9156L143.137 17.3409Z" fill="#1EBEC4"/>
<path d="M162.125 23.8982L160.413 25.6142L153.839 19.0476L155.551 17.3329L162.125 23.8982Z" fill="#1EBEC4"/>
<path d="M160.408 17.3292L162.123 19.0425L155.556 25.6172L153.841 23.9038L160.408 17.3292Z" fill="#1EBEC4"/>
<path d="M179.396 23.8872L177.684 25.6019L171.108 19.0365L172.821 17.3219L179.396 23.8872Z" fill="#1EBEC4"/>
<path d="M177.677 17.3181L179.393 19.0314L172.827 25.6047L171.112 23.8927L177.677 17.3181Z" fill="#1EBEC4"/>
<path d="M110.326 40.0922L108.612 41.8069L102.038 35.2416L103.75 33.5269L110.326 40.0922Z" fill="#1EBEC4"/>
<path d="M108.607 33.5231L110.322 35.2365L103.756 41.8098L102.04 40.0978L108.607 33.5231Z" fill="#1EBEC4"/>
<path d="M127.595 40.0805L125.883 41.7965L119.309 35.2298L121.021 33.5151L127.595 40.0805Z" fill="#1EBEC4"/>
<path d="M125.878 33.5114L127.593 35.2248L121.026 41.7994L119.311 40.0861L125.878 33.5114Z" fill="#1EBEC4"/>
<path d="M144.866 40.0695L143.153 41.7841L136.578 35.2188L138.292 33.5041L144.866 40.0695Z" fill="#1EBEC4"/>
<path d="M143.148 33.5004L144.862 35.2137L138.297 41.787L136.582 40.075L143.148 33.5004Z" fill="#1EBEC4"/>
<path d="M162.137 40.0577L160.424 41.7737L153.849 35.207L155.561 33.4923L162.137 40.0577Z" fill="#1EBEC4"/>
<path d="M160.418 33.4888L162.133 35.2021L155.568 41.7768L153.852 40.0635L160.418 33.4888Z" fill="#1EBEC4"/>
<path d="M179.407 40.0467L177.695 41.7613L171.12 35.196L172.832 33.48L179.407 40.0467Z" fill="#1EBEC4"/>
<path d="M177.689 33.4777L179.404 35.1897L172.837 41.7644L171.122 40.0524L177.689 33.4777Z" fill="#1EBEC4"/>
<path d="M197.757 160.893L196.045 162.608L189.469 156.041L191.182 154.326L197.757 160.893Z" fill="#1EBEC4"/>
<path d="M196.038 154.324L197.754 156.036L191.187 162.611L189.473 160.899L196.038 154.324Z" fill="#1EBEC4"/>
<path d="M197.769 178.264L196.055 179.979L189.481 173.412L191.194 171.697L197.769 178.264Z" fill="#1EBEC4"/>
<path d="M196.05 171.695L197.764 173.407L191.199 179.983L189.484 178.27L196.05 171.695Z" fill="#1EBEC4"/>
<path d="M197.779 194.423L196.067 196.139L189.491 189.572L191.204 187.858L197.779 194.423Z" fill="#1EBEC4"/>
<path d="M196.06 187.854L197.776 189.567L191.21 196.142L189.495 194.43L196.06 187.854Z" fill="#1EBEC4"/>
<path d="M197.723 109.429L196.01 111.144L189.435 104.579L191.148 102.864L197.723 109.429Z" fill="#1EBEC4"/>
<path d="M196.004 102.86L197.719 104.574L191.154 111.147L189.439 109.435L196.004 102.86Z" fill="#1EBEC4"/>
<path d="M197.735 126.801L196.021 128.516L189.447 121.95L191.159 120.234L197.735 126.801Z" fill="#1EBEC4"/>
<path d="M196.016 120.232L197.731 121.945L191.165 128.52L189.451 126.806L196.016 120.232Z" fill="#1EBEC4"/>
<path d="M197.745 142.961L196.033 144.675L189.457 138.109L191.17 136.394L197.745 142.961Z" fill="#1EBEC4"/>
<path d="M196.026 136.392L197.742 138.104L191.176 144.678L189.461 142.966L196.026 136.392Z" fill="#1EBEC4"/>
<path d="M197.689 57.9665L195.976 59.6812L189.401 53.1158L191.114 51.4012L197.689 57.9665Z" fill="#1EBEC4"/>
<path d="M195.97 51.3975L197.685 53.1109L191.12 59.6842L189.405 57.9722L195.97 51.3975Z" fill="#1EBEC4"/>
<path d="M197.701 75.3377L195.988 77.0537L189.413 70.487L191.125 68.7723L197.701 75.3377Z" fill="#1EBEC4"/>
<path d="M195.982 68.7686L197.697 70.482L191.131 77.0566L189.415 75.3433L195.982 68.7686Z" fill="#1EBEC4"/>
<path d="M197.711 91.4971L195.998 93.2131L189.423 86.6465L191.137 84.9318L197.711 91.4971Z" fill="#1EBEC4"/>
<path d="M195.992 84.9281L197.707 86.6415L191.142 93.2161L189.427 91.5028L195.992 84.9281Z" fill="#1EBEC4"/>
<path d="M197.655 6.50372L195.942 8.21838L189.367 1.65305L191.079 -0.0629504L197.655 6.50372Z" fill="#1EBEC4"/>
<path d="M195.937 -0.0653842L197.651 1.64662L191.086 8.22128L189.37 6.50928L195.937 -0.0653842Z" fill="#1EBEC4"/>
<path d="M197.666 23.8748L195.954 25.5908L189.379 19.0241L191.091 17.3094L197.666 23.8748Z" fill="#1EBEC4"/>
<path d="M195.948 17.3057L197.663 19.019L191.096 25.5924L189.382 23.8804L195.948 17.3057Z" fill="#1EBEC4"/>
<path d="M197.677 40.0342L195.964 41.7489L189.389 35.1836L191.101 33.4689L197.677 40.0342Z" fill="#1EBEC4"/>
<path d="M195.959 33.4653L197.673 35.1786L191.108 41.752L189.392 40.04L195.959 33.4653Z" fill="#1EBEC4"/>
</g>
</svg>
