<svg width="58" height="71" viewBox="0 0 58 71" fill="none" xmlns="http://www.w3.org/2000/svg">
<path d="M8.96758 0.28257C8.77025 0.517237 8.63025 0.922573 8.42625 1.57324C7.48225 4.60124 7.42225 7.65057 8.25691 10.7052C8.38091 11.1559 8.31958 11.4492 8.02225 11.7999C5.49958 14.7692 4.32891 18.2386 4.27158 22.1119C4.22624 25.1932 4.52225 28.2292 5.49691 31.1666C7.44225 37.0332 11.6662 40.3986 17.4716 42.0092C19.2942 42.5159 21.1516 42.8492 23.1862 43.0706C22.6209 43.6892 22.1316 44.2146 21.7756 44.8399C21.2236 45.8186 20.8662 46.8692 20.7409 47.9786C20.6902 48.4306 20.5022 48.6332 20.1089 48.7919C15.3369 50.7332 11.1169 49.3972 8.35558 45.0612C7.04625 43.0052 5.26491 41.6012 2.83425 41.1186C2.07958 40.9679 1.32092 40.9479 0.587583 41.2146C-0.0550837 41.4492 -0.169753 41.8559 0.239581 42.4079C0.534247 42.8039 0.911578 43.1226 1.32758 43.3772C3.72224 44.8386 5.23291 47.0306 6.28891 49.5412C7.90891 53.3946 10.9036 55.1879 14.9222 55.5199C16.7409 55.6679 18.5462 55.4759 20.3636 55.0639C20.3636 57.5692 20.3196 60.3492 20.3196 62.8159C20.3196 62.8159 20.4409 70.6079 30.6916 70.6079C40.9422 70.6079 41.2222 62.8159 41.2222 62.8159C41.2262 62.8146 41.2236 62.8159 41.2222 62.8159C41.2222 58.7052 41.2222 54.6666 41.2222 50.6266C41.2222 49.0172 41.0049 47.4426 40.4356 45.9266C40.0116 44.7972 39.4036 43.7866 38.4302 42.8812C39.8302 42.6346 41.1436 42.4319 42.4422 42.1652C44.4102 41.7599 46.3089 41.1399 48.1103 40.2346C51.5636 38.5026 54.1449 35.9106 55.5596 32.3052C57.5316 27.2826 58.0236 22.1212 56.5156 16.8706C55.9502 14.8959 54.9476 13.1292 53.6142 11.5652C53.3129 11.2132 53.2636 10.9439 53.4116 10.4919C54.5302 7.08391 54.0369 3.76124 52.8156 0.482572C52.6649 0.0799057 52.3849 0.0532446 52.0502 0.0465779C50.5329 0.0172446 49.1022 0.418578 47.6996 0.934578C45.6329 1.69191 43.7036 2.72924 41.8516 3.90924C41.4422 4.17057 41.0876 4.25724 40.5822 4.12524C34.8689 2.62924 29.0916 2.60924 23.3422 3.74124C21.3169 4.13857 19.6756 4.04791 17.9089 2.86658C15.7716 1.43858 13.3529 0.498572 10.7662 0.113238C10.3422 0.0492385 10.0169 0.00523968 9.76091 -9.3657e-05L8.96758 0.28257Z" fill="url(#paint0_linear_110_115)"/>
<defs>
<linearGradient id="paint0_linear_110_115" x1="28.6991" y1="0.499699" x2="28.6991" y2="74.5311" gradientUnits="userSpaceOnUse">
<stop stop-color="#00FDEE"/>
<stop offset="0.225659" stop-color="#00FDEE"/>
<stop offset="1" stop-color="#0063EE"/>
</linearGradient>
</defs>
</svg>
